<?xml version="1.0" encoding="UTF-8"?>
<svg xmlns="http://www.w3.org/2000/svg" width="600" height="200" viewBox="0 0 500 167">
  <defs>
    <marker id="arrow" markerWidth="10" markerHeight="7" refX="9" refY="3.5" orient="auto">
      <polygon points="0 0, 10 3.5, 0 7" fill="#666"/>
    </marker>
  </defs>
  <rect width="100%" height="100%" rx="12" fill="#f8f9fa" stroke="#999" stroke-width="1"/>
  <text x="250" y="20" font-family="Arial" font-size="12" font-weight="bold" fill="#333" text-anchor="middle">The Minimal Stack</text>
  <g transform="translate(20, 45)">
    <rect x="0" y="0" width="90" height="100" rx="6" fill="#e8f4fd" stroke="#3498db" stroke-width="2"/>
    <text x="45" y="20" font-family="Arial" font-size="10" font-weight="bold" fill="#3498db" text-anchor="middle">Markdown</text>
    <rect x="10" y="30" width="70" height="16" rx="2" fill="white" stroke="#3498db" stroke-width="1"/>
    <text x="45" y="42" font-family="monospace" font-size="7" fill="#666" text-anchor="middle">post-1.md</text>
    <rect x="10" y="50" width="70" height="16" rx="2" fill="white" stroke="#3498db" stroke-width="1"/>
    <text x="45" y="62" font-family="monospace" font-size="7" fill="#666" text-anchor="middle">post-2.md</text>
    <rect x="10" y="70" width="70" height="16" rx="2" fill="white" stroke="#3498db" stroke-width="1"/>
    <text x="45" y="82" font-family="monospace" font-size="7" fill="#666" text-anchor="middle">index.md</text>
  </g>
  <line x1="115" y1="95" x2="145" y2="95" stroke="#666" stroke-width="2" marker-end="url(#arrow)"/>
  <g transform="translate(155, 55)">
    <rect x="0" y="0" width="90" height="80" rx="6" fill="#fce4ec" stroke="#e74c3c" stroke-width="2"/>
    <text x="45" y="20" font-family="Arial" font-size="10" font-weight="bold" fill="#e74c3c" text-anchor="middle">tens-city</text>
    <text x="45" y="38" font-family="monospace" font-size="8" fill="#666" text-anchor="middle">Go binary</text>
    <text x="45" y="52" font-family="Arial" font-size="7" fill="#999" text-anchor="middle">renders markdown</text>
    <text x="45" y="64" font-family="Arial" font-size="7" fill="#999" text-anchor="middle">serves HTTP</text>
  </g>
  <line x1="250" y1="95" x2="280" y2="95" stroke="#666" stroke-width="2" marker-end="url(#arrow)"/>
  <g transform="translate(290, 65)">
    <rect x="0" y="0" width="70" height="60" rx="6" fill="#e8f8e8" stroke="#27ae60" stroke-width="2"/>
    <text x="35" y="20" font-family="Arial" font-size="10" font-weight="bold" fill="#27ae60" text-anchor="middle">nginx</text>
    <text x="35" y="36" font-family="Arial" font-size="7" fill="#666" text-anchor="middle">TLS termination</text>
    <text x="35" y="48" font-family="Arial" font-size="7" fill="#666" text-anchor="middle">reverse proxy</text>
  </g>
  <line x1="365" y1="95" x2="395" y2="95" stroke="#666" stroke-width="2" marker-end="url(#arrow)"/>
  <g transform="translate(405, 55)">
    <rect x="0" y="0" width="75" height="80" rx="6" fill="#fff8e1" stroke="#f39c12" stroke-width="2"/>
    <text x="37" y="20" font-family="Arial" font-size="10" font-weight="bold" fill="#f39c12" text-anchor="middle">Browser</text>
    <rect x="8" y="30" width="59" height="40" rx="3" fill="white" stroke="#f39c12" stroke-width="1"/>
    <text x="37" y="45" font-family="Arial" font-size="7" fill="#666" text-anchor="middle">HTML</text>
    <text x="37" y="55" font-family="Arial" font-size="7" fill="#666" text-anchor="middle">RSS</text>
    <text x="37" y="65" font-family="Arial" font-size="7" fill="#666" text-anchor="middle">JSON-LD</text>
  </g>
</svg>
